<?xml version="1.0" standalone="no"?>
<!DOCTYPE svg PUBLIC "-//W3C//DTD SVG 20010904//EN"
 "http://www.w3.org/TR/2001/REC-SVG-20010904/DTD/svg10.dtd">
<svg version="1.0" xmlns="http://www.w3.org/2000/svg"
 width="512.000000pt" height="512.000000pt" viewBox="0 0 512.000000 512.000000"
 preserveAspectRatio="xMidYMid meet">
<metadata>
Created by potrace 1.14, written by Peter Selinger 2001-2017
</metadata>
<g transform="translate(0.000000,512.000000) scale(0.100000,-0.100000)"
fill="#000000" stroke="none">
<path d="M1040 4880 l0 -160 -80 0 -80 0 0 -240 0 -240 -160 0 -160 0 0 -748
0 -747 -37 -20 c-122 -66 -233 -212 -263 -348 l-13 -57 -84 0 -83 0 0 -1120 0
-1120 2480 0 2480 0 0 1126 0 1126 -47 -6 c-27 -4 -59 -8 -73 -11 -14 -2 -43
-7 -65 -10 -22 -3 -51 -7 -65 -10 -14 -2 -47 -7 -75 -10 -27 -4 -63 -8 -80
-11 -40 -5 -173 -24 -207 -30 l-28 -4 0 840 0 840 -80 0 -80 0 0 406 0 407
-42 -6 c-24 -4 -60 -10 -80 -13 l-38 -7 0 87 0 86 -80 0 -80 0 0 -100 c0 -55
-3 -100 -7 -101 -5 0 -17 -2 -28 -4 -11 -2 -40 -7 -64 -10 -25 -3 -48 -8 -53
-11 -4 -3 -8 83 -8 190 l0 196 -80 0 -80 0 0 -204 c0 -227 6 -208 -70 -220
-19 -4 -47 -8 -62 -10 l-28 -5 0 140 0 139 -80 0 -80 0 0 -155 0 -155 -25 -1
c-14 -1 -28 -2 -32 -3 -5 -1 -29 -5 -55 -10 l-48 -7 0 -315 0 -314 -80 0 -80
0 0 -400 0 -400 -320 0 -320 0 0 560 0 560 -160 0 -160 0 0 240 0 240 -80 0
-80 0 0 160 0 160 -400 0 -400 0 0 -160z m640 -80 l0 -80 -240 0 -240 0 0 80
0 80 240 0 240 0 0 -80z m160 -400 l0 -160 -400 0 -400 0 0 160 0 160 400 0
400 0 0 -160z m2240 -165 l0 -315 -400 0 -400 0 0 244 c0 274 -8 248 80 261
46 8 66 11 110 20 14 2 45 7 70 10 25 3 52 8 60 10 8 2 33 6 55 10 22 3 65 10
95 15 30 5 72 12 94 16 21 3 48 8 60 10 11 2 39 7 61 10 32 4 101 18 113 23 1
1 2 -141 2 -314z m-1920 -635 l0 -480 -160 0 -160 0 0 -185 c0 -102 -2 -185
-3 -185 -2 0 -30 10 -63 22 -58 22 -66 23 -556 23 l-498 0 0 643 0 642 720 0
720 0 0 -480z m2078 -612 c-3 -762 -3 -771 -23 -774 -11 -2 -38 -5 -60 -9 -22
-3 -49 -7 -60 -9 -11 -2 -47 -7 -80 -11 -32 -4 -66 -8 -75 -10 -8 -1 -37 -6
-65 -9 -27 -4 -65 -9 -82 -12 l-33 -6 -2 -204 -3 -205 -115 155 c-63 86 -117
155 -120 155 -3 0 -57 -69 -120 -155 l-115 -155 -3 691 -2 690 -80 0 -80 0 0
320 0 320 560 0 560 0 -2 -772z m-1118 -108 l0 -80 -560 0 -560 0 0 80 0 80
560 0 560 0 0 -80z m-1358 -277 c90 -42 150 -100 193 -186 19 -38 35 -76 35
-83 0 -12 -129 -14 -791 -14 l-790 0 6 23 c36 131 132 232 261 276 56 19 82
20 539 18 l480 -2 67 -32z m1358 -523 l0 -561 -80 -106 -80 -106 0 -534 0
-533 -320 0 -320 0 0 1040 0 1040 -84 0 -84 0 -7 43 c-11 60 -48 139 -100 213
l-46 64 560 0 561 0 0 -560z m-960 0 l0 -80 -960 0 -960 0 0 80 0 80 960 0
960 0 0 -80z m2720 -885 l0 -955 -400 0 -400 0 0 533 0 534 -80 106 -80 106 0
246 c0 135 3 245 8 246 4 0 16 2 27 4 11 2 43 7 70 10 28 3 57 8 65 10 8 2 40
7 70 10 30 3 62 8 70 10 8 2 38 7 65 10 99 11 140 16 155 20 8 3 35 7 60 10
38 5 129 18 205 30 11 1 47 6 80 10 33 4 62 9 64 11 2 2 8 4 13 4 4 0 8 -430
8 -955z m-2720 -155 l0 -800 -80 0 -80 0 0 720 0 720 -800 0 -800 0 0 -720 0
-720 -80 0 -80 0 0 800 0 800 960 0 960 0 0 -800z m1525 528 l155 -208 -320 0
-320 0 157 210 c87 116 161 209 165 208 4 -2 77 -96 163 -210z m-2805 -208 l0
-160 -160 0 -160 0 0 160 0 160 160 0 160 0 0 -160z m480 0 l0 -160 -160 0
-160 0 0 160 0 160 160 0 160 0 0 -160z m480 0 l0 -160 -160 0 -160 0 0 160 0
160 160 0 160 0 0 -160z m2080 -640 l0 -480 -400 0 -400 0 0 480 0 480 400 0
400 0 0 -480z m-3040 160 l0 -160 -160 0 -160 0 0 160 0 160 160 0 160 0 0
-160z m480 0 l0 -160 -160 0 -160 0 0 160 0 160 160 0 160 0 0 -160z m480 0
l0 -160 -160 0 -160 0 0 160 0 160 160 0 160 0 0 -160z m-960 -480 l0 -160
-160 0 -160 0 0 160 0 160 160 0 160 0 0 -160z m480 0 l0 -160 -160 0 -160 0
0 160 0 160 160 0 160 0 0 -160z m480 0 l0 -160 -160 0 -160 0 0 160 0 160
160 0 160 0 0 -160z"/>
<path d="M880 3840 l0 -80 80 0 80 0 0 80 0 80 -80 0 -80 0 0 -80z"/>
<path d="M1200 3840 l0 -80 80 0 80 0 0 80 0 80 -80 0 -80 0 0 -80z"/>
<path d="M1520 3840 l0 -80 80 0 80 0 0 80 0 80 -80 0 -80 0 0 -80z"/>
<path d="M1840 3840 l0 -80 80 0 80 0 0 80 0 80 -80 0 -80 0 0 -80z"/>
<path d="M880 3520 l0 -80 80 0 80 0 0 80 0 80 -80 0 -80 0 0 -80z"/>
<path d="M1200 3520 l0 -80 80 0 80 0 0 80 0 80 -80 0 -80 0 0 -80z"/>
<path d="M1520 3520 l0 -80 80 0 80 0 0 80 0 80 -80 0 -80 0 0 -80z"/>
<path d="M1840 3520 l0 -80 80 0 80 0 0 80 0 80 -80 0 -80 0 0 -80z"/>
<path d="M880 3200 l0 -80 80 0 80 0 0 80 0 80 -80 0 -80 0 0 -80z"/>
<path d="M1200 3200 l0 -80 80 0 80 0 0 80 0 80 -80 0 -80 0 0 -80z"/>
<path d="M1520 3200 l0 -80 80 0 80 0 0 80 0 80 -80 0 -80 0 0 -80z"/>
<path d="M3280 3520 l0 -80 80 0 80 0 0 80 0 80 -80 0 -80 0 0 -80z"/>
<path d="M3600 3520 l0 -80 80 0 80 0 0 80 0 80 -80 0 -80 0 0 -80z"/>
<path d="M3920 3520 l0 -80 80 0 80 0 0 80 0 80 -80 0 -80 0 0 -80z"/>
<path d="M3280 3200 l0 -80 80 0 80 0 0 80 0 80 -80 0 -80 0 0 -80z"/>
<path d="M3600 3200 l0 -80 80 0 80 0 0 80 0 80 -80 0 -80 0 0 -80z"/>
<path d="M3920 3200 l0 -80 80 0 80 0 0 80 0 80 -80 0 -80 0 0 -80z"/>
<path d="M3600 2880 l0 -80 80 0 80 0 0 80 0 80 -80 0 -80 0 0 -80z"/>
<path d="M3920 2880 l0 -80 80 0 80 0 0 80 0 80 -80 0 -80 0 0 -80z"/>
<path d="M3600 2560 l0 -80 80 0 80 0 0 80 0 80 -80 0 -80 0 0 -80z"/>
<path d="M3920 2560 l0 -80 80 0 80 0 0 80 0 80 -80 0 -80 0 0 -80z"/>
<path d="M3600 2240 l0 -80 80 0 80 0 0 80 0 80 -80 0 -80 0 0 -80z"/>
<path d="M2480 2400 l0 -80 80 0 80 0 0 80 0 80 -80 0 -80 0 0 -80z"/>
<path d="M2800 2400 l0 -80 80 0 80 0 0 80 0 80 -80 0 -80 0 0 -80z"/>
<path d="M2480 2080 l0 -80 80 0 80 0 0 80 0 80 -80 0 -80 0 0 -80z"/>
<path d="M2800 2080 l0 -80 80 0 80 0 0 80 0 80 -80 0 -80 0 0 -80z"/>
<path d="M2480 1760 l0 -80 80 0 80 0 0 80 0 80 -80 0 -80 0 0 -80z"/>
<path d="M2800 1760 l0 -80 80 0 80 0 0 80 0 80 -80 0 -80 0 0 -80z"/>
<path d="M2480 1440 l0 -80 80 0 80 0 0 80 0 80 -80 0 -80 0 0 -80z"/>
<path d="M2480 1120 l0 -80 80 0 80 0 0 80 0 80 -80 0 -80 0 0 -80z"/>
<path d="M2480 800 l0 -80 80 0 80 0 0 80 0 80 -80 0 -80 0 0 -80z"/>
<path d="M2480 480 l0 -80 80 0 80 0 0 80 0 80 -80 0 -80 0 0 -80z"/>
<path d="M4240 1760 l0 -80 80 0 80 0 0 80 0 80 -80 0 -80 0 0 -80z"/>
<path d="M4560 1760 l0 -80 80 0 80 0 0 80 0 80 -80 0 -80 0 0 -80z"/>
<path d="M4240 1440 l0 -80 80 0 80 0 0 80 0 80 -80 0 -80 0 0 -80z"/>
<path d="M4560 1440 l0 -80 80 0 80 0 0 80 0 80 -80 0 -80 0 0 -80z"/>
<path d="M4240 1120 l0 -80 80 0 80 0 0 80 0 80 -80 0 -80 0 0 -80z"/>
<path d="M4560 1120 l0 -80 80 0 80 0 0 80 0 80 -80 0 -80 0 0 -80z"/>
<path d="M4240 800 l0 -80 80 0 80 0 0 80 0 80 -80 0 -80 0 0 -80z"/>
<path d="M4560 800 l0 -80 80 0 80 0 0 80 0 80 -80 0 -80 0 0 -80z"/>
<path d="M4240 480 l0 -80 80 0 80 0 0 80 0 80 -80 0 -80 0 0 -80z"/>
<path d="M4560 480 l0 -80 80 0 80 0 0 80 0 80 -80 0 -80 0 0 -80z"/>
<path d="M3280 720 l0 -320 80 0 80 0 0 320 0 320 -80 0 -80 0 0 -320z"/>
<path d="M3600 720 l0 -320 80 0 80 0 0 320 0 320 -80 0 -80 0 0 -320z"/>
</g>
</svg>
